<?xml version="1.0" encoding="UTF-8"?>
<svg id="Capa_2" data-name="Capa 2" xmlns="http://www.w3.org/2000/svg" xmlns:xlink="http://www.w3.org/1999/xlink" viewBox="0 0 319.49 211.75">
  <defs>
    <style>
      .cls-1 {
        fill: none;
      }

      .cls-2 {
        fill: #ff4438;
      }

      .cls-3 {
        clip-path: url(#clippath);
      }
    </style>
    <clipPath id="clippath">
      <rect class="cls-1" width="319.49" height="211.75"/>
    </clipPath>
  </defs>
  <g id="Layer_1" data-name="Layer 1">
    <g class="cls-3">
      <path class="cls-2" d="M279.51,155.65c-5.93-13.73-14.03-25.68-24.3-35.86-2.96-2.93-6.09-5.67-9.34-8.25V43.47c0-10.08-3.07-17.63-9.19-22.67-6.13-5.04-13.34-7.56-21.64-7.56s-15.41,2.62-21.34,7.85c-5.93,5.24-8.89,12.7-8.89,22.38v43.69c-3.17-.26-6.38-.42-9.63-.42-3.05,0-6.06.15-9.04.37v-43.65c0-10.08-3.07-17.63-9.19-22.67-6.13-5.04-13.34-7.56-21.64-7.56s-15.41,2.62-21.34,7.85c-5.93,5.24-8.89,12.7-8.89,22.38v67.89c-3.31,2.63-6.48,5.43-9.49,8.44-10.18,10.18-18.23,22.13-24.16,35.86-5.93,13.74-8.89,28.41-8.89,44.01s2.96,30.53,8.89,44.16c5.93,13.63,13.98,25.54,24.16,35.71,10.18,10.18,22.08,18.18,35.72,24.01,13.63,5.83,28.25,8.75,43.87,8.75s30.28-2.91,44.01-8.75c13.73-5.82,25.74-13.83,36.01-24.01,10.27-10.17,18.37-22.08,24.3-35.71,5.93-13.63,8.89-28.35,8.89-44.16s-2.97-30.28-8.89-44.01ZM190.47,110.71c3.8,0,6.88,3.08,6.88,6.88s-3.08,6.88-6.88,6.88-6.88-3.08-6.88-6.88,3.08-6.88,6.88-6.88ZM159.22,110.71c3.8,0,6.88,3.08,6.88,6.88s-3.08,6.88-6.88,6.88-6.88-3.08-6.88-6.88,3.08-6.88,6.88-6.88ZM223.05,220.26c-2.67,6.22-6.33,11.61-10.97,16.15-4.64,4.55-10.08,8.15-16.3,10.82-6.22,2.67-12.89,4-20,4s-13.78-1.33-20.01-4c-6.22-2.67-11.61-6.27-16.15-10.82-4.55-4.54-8.15-9.93-10.82-16.15-2.67-6.22-4-12.89-4-20.01s1.33-13.78,4-20.01c2.67-6.22,6.27-11.66,10.82-16.3,4.54-4.64,9.93-8.3,16.15-10.97,6.22-2.67,12.89-4,20.01-4s13.78,1.33,20,4c6.22,2.67,11.66,6.32,16.3,10.97,4.64,4.64,8.3,10.08,10.97,16.3,2.67,6.22,4,12.89,4,20.01s-1.33,13.78-4,20.01Z"/>
    </g>
  </g>
</svg>